HIERARCHY
ROOT Hips
{
	OFFSET	0.00	0.00	0.00
	CHANNELS 6 Xposition Yposition Zposition Zrotation Xrotation Yrotation
	JOINT LeftUpLeg
	{
		OFFSET	 0.126116	-0.014019	-0.065224
		CHANNELS 3 Zrotation Xrotation Yrotation
		JOINT LeftLeg
		{
			OFFSET	 0.000000	 0.000000	 0.569914
			CHANNELS 3 Zrotation Xrotation Yrotation
			JOINT LeftFoot
			{
				OFFSET	 0.000000	 0.000000	 0.544423
				CHANNELS 3 Zrotation Xrotation Yrotation
				JOINT LeftToeBase
				{
					OFFSET	 0.000000	 0.000000	 0.207117
					CHANNELS 3 Zrotation Xrotation Yrotation
					End Site
					{
						OFFSET	 0.000000	 0.000000	 0.207117
					}
				}
			}
		}
	}
	JOINT RightUpLeg
	{
		OFFSET	-0.124023	-0.008373	-0.065224
		CHANNELS 3 Zrotation Xrotation Yrotation
		JOINT RightLeg
		{
			OFFSET	 0.000000	 0.000000	 0.570047
			CHANNELS 3 Zrotation Xrotation Yrotation
			JOINT RightFoot
			{
				OFFSET	 0.000000	 0.000000	 0.544354
				CHANNELS 3 Zrotation Xrotation Yrotation
				JOINT RightToeBase
				{
					OFFSET	 0.000000	 0.000000	 0.207540
					CHANNELS 3 Zrotation Xrotation Yrotation
					End Site
					{
						OFFSET	 0.000000	 0.000000	 0.207540
					}
				}
			}
		}
	}
	JOINT Spine
	{
		OFFSET	 0.000184	-0.007763	 0.117403
		CHANNELS 3 Zrotation Xrotation Yrotation
		JOINT Spine1
		{
			OFFSET	 0.000000	 0.000000	 0.137269
			CHANNELS 3 Zrotation Xrotation Yrotation
			JOINT Spine2
			{
				OFFSET	 0.000000	 0.000000	 0.156879
				CHANNELS 3 Zrotation Xrotation Yrotation
				JOINT LeftShoulder
				{
					OFFSET	 0.080501	-0.002496	 0.160144
					CHANNELS 3 Zrotation Xrotation Yrotation
					JOINT LeftArm
					{
						OFFSET	 0.000000	 0.000000	 0.164363
						CHANNELS 3 Zrotation Xrotation Yrotation
						JOINT LeftForeArm
						{
							OFFSET	 0.000000	 0.000000	 0.364576
							CHANNELS 3 Zrotation Xrotation Yrotation
							JOINT LeftHand
							{
								OFFSET	 0.000000	 0.000000	 0.360812
								CHANNELS 3 Zrotation Xrotation Yrotation
								JOINT LeftHandIndex1
								{
									OFFSET	 0.000000	 0.000000	 0.086006
									CHANNELS 3 Zrotation Xrotation Yrotation
									JOINT LeftHandIndex2
									{
										OFFSET	 0.000000	 0.000000	 0.047236
										CHANNELS 3 Zrotation Xrotation Yrotation
										JOINT LeftHandIndex3
										{
											OFFSET	-0.004284	-0.000551	 0.038166
											CHANNELS 3 Zrotation Xrotation Yrotation
											End Site
											{
												OFFSET	-0.004284	-0.000551	 0.038166
											}
										}
									}
								}
							}
						}
					}
				}
				JOINT Neck
				{
					OFFSET	 0.000000	 0.000000	 0.176489
					CHANNELS 3 Zrotation Xrotation Yrotation
					JOINT Head
					{
						OFFSET	 0.000000	-0.001747	 0.077940
						CHANNELS 3 Zrotation Xrotation Yrotation
						End Site
						{
							OFFSET	 0.000000	-0.001747	 0.077940
						}
					}
				}
				JOINT RightShoulder
				{
					OFFSET	-0.080363	 0.000306	 0.159706
					CHANNELS 3 Zrotation Xrotation Yrotation
					JOINT RightArm
					{
						OFFSET	 0.000000	 0.000000	 0.164196
						CHANNELS 3 Zrotation Xrotation Yrotation
						JOINT RightForeArm
						{
							OFFSET	 0.000000	 0.000000	 0.365611
							CHANNELS 3 Zrotation Xrotation Yrotation
							JOINT RightHand
							{
								OFFSET	 0.000000	 0.000000	 0.360648
								CHANNELS 3 Zrotation Xrotation Yrotation
								JOINT RightHandIndex1
								{
									OFFSET	 0.000000	 0.000000	 0.069977
									CHANNELS 3 Zrotation Xrotation Yrotation
									JOINT RightHandIndex2
									{
										OFFSET	 0.000000	 0.000000	 0.052305
										CHANNELS 3 Zrotation Xrotation Yrotation
										JOINT RightHandIndex3
										{
											OFFSET	 0.009002	-0.000782	 0.042196
											CHANNELS 3 Zrotation Xrotation Yrotation
											End Site
											{
												OFFSET	 0.009002	-0.000782	 0.042196
											}
										}
									}
								}
							}
						}
					}
				}
			}
		}
	}
}
MOTION
Frames:    13
Frame Time: 0.03333334
-0.035336	 0.260196	 1.021598	 3.524487	 32.903440	-8.469968	 38.093560	-80.234830	-144.842300	 6.242635	-70.932940	 6.296852	 41.265170	 82.028340	-44.260980	-2.385832	 28.452790	-0.000001	 64.761410	-79.844910	-115.960900	-18.132340	-75.293150	-12.574360	 14.852610	 82.896650	 1.569741	 2.384659	 28.388700	-0.000001	-5.886378	 14.776170	 0.148632	-1.346498	 21.305230	-0.009836	-6.856510	-2.014608	 4.668454	-99.108280	 68.194990	 156.967600	 6.001325	-6.012853	-51.920140	-24.654460	 2.371156	-7.523720	-32.210590	-20.251740	-21.118150	-2.027600	 6.559038	 9.033609	-5.188889	 0.308190	 3.541030	-5.234859	 0.342567	 0.430617	 0.218158	 16.852030	-5.658126	-6.090668	-27.137610	-3.833820	 97.407180	 64.618380	-159.341500	-8.249062	 4.784062	 54.119460	 7.020035	 9.665064	 33.159130	 16.244730	-19.693350	 16.784470	 1.803333	 3.979147	-15.098590	 4.898592	 3.004813	-9.310344	 5.224449	 0.395017	 2.014677
-0.034174	 0.259529	 1.029174	 3.416541	 32.297820	-8.204028	 33.641900	-79.152280	-149.296400	 5.740021	-69.848590	 5.782331	 39.375350	 81.759600	-42.280210	-2.385832	 28.452790	-0.000001	 56.991070	-79.392340	-123.554200	-17.417680	-74.209800	-11.821610	 14.609680	 82.630340	 1.797199	 2.384659	 28.388700	-0.000001	-5.224760	 14.662910	 0.064147	-1.182885	 21.420230	-0.224425	-6.997299	-2.422593	 4.523365	-98.925450	 68.323030	 157.337500	 6.234383	-4.875375	-52.314970	-24.498690	 2.373153	-7.529164	-32.306860	-20.226930	-21.328380	-2.027600	 6.559038	 9.033609	-5.188889	 0.308190	 3.541030	-5.234859	 0.342567	 0.430617	-0.068941	 14.905820	-4.997589	-6.350073	-25.135440	-4.018775	 97.299960	 64.482690	-159.753500	-8.794298	 4.777317	 53.740350	 7.135139	 10.023300	 34.002990	 16.076360	-19.504130	 17.304460	 1.803333	 3.979147	-15.098590	 4.898592	 3.004813	-9.310344	 5.224449	 0.395017	 2.014677
-0.032776	 0.258674	 1.038301	 3.333861	 31.586530	-7.922481	 29.271010	-77.790990	-153.615400	 5.291297	-68.500310	 5.313046	 36.923740	 81.375770	-39.780610	-2.385832	 28.452790	-0.000001	 48.666070	-78.621320	-131.626800	-16.668850	-72.887410	-11.025230	 14.222870	 82.275720	 2.149598	 2.384659	 28.388700	-0.000001	-4.467484	 14.522160	-0.016301	-0.976061	 21.526690	-0.480003	-7.176354	-2.889253	 4.346868	-98.645630	 68.609450	 157.776500	 6.574403	-3.412742	-52.864210	-24.288090	 2.369617	-7.527098	-32.446620	-20.282020	-21.666770	-2.027600	 6.559038	 9.033609	-5.188889	 0.308190	 3.541030	-5.234859	 0.342567	 0.430617	-0.357732	 12.458160	-4.403534	-6.560661	-22.635970	-4.067411	 97.156610	 64.248210	-160.346300	-9.485621	 4.637809	 53.315300	 7.194550	 10.445760	 35.086250	 15.738190	-19.218940	 17.881330	 1.803333	 3.979147	-15.098590	 4.898592	 3.004813	-9.310344	 5.224449	 0.395017	 2.014677
-0.031417	 0.257770	 1.046712	 3.260753	 30.936510	-7.669413	 26.041300	-76.474830	-156.797800	 4.927622	-67.237470	 4.930079	 34.858850	 81.012350	-37.661190	-2.385832	 28.452790	-0.000001	 42.038400	-77.716210	-138.024900	-16.066400	-71.642750	-10.376800	 13.879780	 81.942660	 2.472640	 2.384659	 28.388700	-0.000001	-3.787675	 14.372080	-0.084079	-0.792038	 21.563060	-0.687492	-7.335157	-3.283422	 4.181118	-98.385960	 68.891130	 158.168600	 6.927957	-2.045594	-53.324940	-24.089480	 2.365775	-7.524073	-32.575360	-20.379100	-21.999680	-2.027600	 6.559038	 9.033609	-5.188889	 0.308190	 3.541030	-5.234859	 0.342567	 0.430617	-0.588338	 10.250210	-3.888195	-6.729851	-20.389340	-4.094923	 97.024250	 64.066090	-160.854100	-10.134540	 4.572949	 52.845900	 7.185861	 10.834320	 36.158460	 15.443470	-18.994460	 18.373040	 1.803333	 3.979147	-15.098590	 4.898592	 3.004813	-9.310344	 5.224449	 0.395017	 2.014677
-0.029833	 0.256593	 1.056350	 3.131811	 30.118940	-7.315963	 22.890730	-74.854750	-159.960500	 4.569983	-65.797550	 4.550151	 32.808910	 80.624430	-35.553180	-2.385832	 28.452790	-0.000001	 35.225490	-76.463500	-144.606900	-15.534520	-70.175590	-9.784858	 13.703340	 81.584380	 2.624683	 2.384659	 28.388700	-0.000001	-3.036882	 14.198980	-0.157432	-0.618616	 21.657770	-0.887354	-7.506440	-3.877357	 3.944202	-97.895920	 69.587060	 158.662200	 7.465749	-0.162990	-53.969950	-23.805270	 2.358964	-7.517729	-32.802260	-20.536130	-22.673480	-2.027600	 6.559038	 9.033609	-5.188889	 0.308190	 3.541030	-5.234859	 0.342567	 0.430617	-0.803314	 7.125023	-3.225191	-6.950338	-17.265690	-4.185496	 96.834780	 64.197470	-161.237400	-10.904370	 5.123103	 52.272110	 6.840449	 11.103100	 37.454410	 15.013510	-18.755030	 18.713350	 1.803333	 3.979147	-15.098590	 4.898592	 3.004813	-9.310344	 5.224449	 0.395017	 2.014677
-0.028354	 0.255244	 1.064885	 3.034286	 29.405080	-7.008399	 20.618250	-73.376910	-162.241300	 4.289428	-64.506120	 4.249526	 31.159580	 80.278080	-33.831820	-2.385833	 28.452760	 0.000004	 30.203630	-75.209470	-149.423800	-15.115870	-68.849580	-9.310185	 13.554410	 81.258950	 2.775026	 2.384659	 28.388700	-0.000001	-2.369901	 14.012220	-0.224031	-0.461878	 21.683010	-1.041344	-7.656989	-4.364450	 3.730129	-97.470970	 70.193690	 159.089200	 7.942167	 1.491974	-54.514260	-23.549170	 2.348767	-7.505678	-32.999530	-20.730120	-23.272920	-2.027600	 6.559038	 9.033609	-5.188889	 0.308190	 3.541030	-5.234859	 0.342567	 0.430617	-0.959654	 4.413080	-2.662615	-7.119853	-14.559120	-4.240802	 96.671620	 64.311630	-161.572900	-11.596860	 5.613756	 51.724700	 6.499890	 11.357050	 38.725670	 14.647750	-18.590820	 19.015350	 1.803333	 3.979147	-15.098590	 4.898592	 3.004813	-9.310344	 5.224449	 0.395017	 2.014677
-0.026597	 0.253823	 1.074192	 2.930824	 28.631390	-6.631784	 18.529170	-71.751220	-164.365900	 4.115527	-63.076980	 4.042590	 29.629330	 79.890570	-32.264910	-2.385833	 28.452760	 0.000004	 25.517740	-73.735050	-153.896300	-14.776750	-67.344560	-8.899736	 13.547240	 80.906550	 2.823984	 2.384659	 28.388700	-0.000001	-1.664556	 13.825080	-0.320355	-0.286060	 21.715600	-1.255827	-7.795419	-4.901752	 3.540836	-96.800720	 71.275300	 159.513100	 8.514606	 3.556803	-55.355400	-23.245570	 2.337592	-7.492680	-33.286070	-21.025250	-23.892330	-2.027600	 6.559038	 9.033609	-5.188889	 0.308190	 3.541030	-5.234859	 0.342567	 0.430617	-1.096703	 1.438204	-2.364961	-7.209852	-11.617850	-4.042149	 96.336500	 64.876220	-161.985700	-12.331090	 6.633142	 51.488060	 6.047857	 11.555490	 40.078770	 14.401970	-18.734960	 19.338390	 1.803333	 3.979147	-15.098590	 4.898592	 3.004813	-9.310344	 5.224449	 0.395017	 2.014677
-0.024471	 0.252056	 1.085101	 2.813215	 27.734120	-6.167472	 16.480050	-69.818370	-166.479400	 3.994554	-61.370040	 3.873523	 27.988950	 79.424410	-30.604710	-2.385833	 28.452760	 0.000004	 20.933640	-71.887020	-158.242200	-14.461350	-65.515720	-8.490209	 13.497220	 80.476580	 2.961679	 2.384659	 28.388700	-0.000001	-0.852723	 13.605040	-0.440134	-0.078442	 21.729650	-1.514305	-7.940531	-5.514147	 3.340520	-95.862560	 72.799610	 159.946400	 9.235866	 6.128565	-56.508380	-22.871500	 2.320499	-7.471262	-33.665900	-21.460410	-24.601510	-2.027600	 6.559038	 9.033609	-5.188889	 0.308190	 3.541030	-5.234859	 0.342567	 0.430617	-1.240630	-2.024473	-2.222842	-7.270650	-8.214105	-3.649557	 95.849750	 65.810360	-162.494900	-13.187750	 8.121072	 51.438840	 5.459553	 11.730270	 41.678900	 14.205750	-19.149100	 19.711320	 1.803333	 3.979147	-15.098590	 4.898592	 3.004813	-9.310344	 5.224449	 0.395017	 2.014677
-0.022651	 0.250232	 1.094664	 2.724208	 26.942260	-5.765250	 14.923730	-68.077360	-168.090200	 3.922505	-59.841630	 3.753525	 26.537700	 78.999690	-29.142400	-2.385833	 28.452750	 0.000004	 17.578330	-70.161170	-161.392500	-14.041990	-63.881410	-7.999740	 13.267080	 80.097020	 3.204501	 2.384659	 28.388700	-0.000001	-0.143929	 13.395000	-0.534368	 0.097708	 21.710690	-1.724794	-8.062390	-6.036797	 3.167350	-95.014940	 74.114640	 160.296700	 9.933903	 8.303473	-57.543870	-22.528850	 2.302355	-7.447704	-33.940900	-21.891190	-25.227060	-2.027600	 6.559038	 9.033609	-5.188889	 0.308190	 3.541030	-5.234859	 0.342567	 0.430617	-1.358202	-5.097019	-2.177567	-7.324705	-5.215306	-3.257669	 95.424800	 66.635900	-162.937400	-13.968110	 9.394488	 51.405010	 4.937432	 11.874510	 43.129460	 14.035080	-19.576930	 19.996980	 1.803333	 3.979147	-15.098590	 4.898592	 3.004813	-9.310344	 5.224449	 0.395017	 2.014677
-0.020962	 0.248047	 1.104231	 2.662840	 26.087870	-5.356773	 13.428500	-66.243840	-169.624700	 3.930779	-58.288490	 3.700255	 24.995620	 78.553250	-27.635350	-2.385833	 28.452750	 0.000004	 14.625980	-68.294470	-164.140200	-13.162960	-62.246380	-7.104456	 12.867620	 79.778020	 3.352681	 2.384659	 28.388700	-0.000001	 0.577175	 13.193100	-0.620494	 0.268409	 21.712500	-1.964072	-8.171721	-6.612291	 3.017124	-94.113110	 75.436420	 160.664300	 10.802330	 10.303280	-58.713940	-22.142040	 2.281528	-7.420432	-34.043950	-22.349330	-25.860340	-2.027600	 6.559038	 9.033609	-5.188889	 0.308190	 3.541030	-5.234859	 0.342567	 0.430617	-1.481801	-8.490303	-2.355278	-7.379288	-1.959881	-2.712022	 94.973370	 67.531060	-163.393300	-14.820540	 10.637700	 51.459160	 4.428701	 12.008790	 44.583180	 13.863510	-20.084930	 20.161070	 1.803333	 3.979147	-15.098590	 4.898592	 3.004813	-9.310344	 5.224449	 0.395017	 2.014677
-0.019396	 0.245294	 1.114630	 2.584366	 25.127130	-4.937092	 11.992000	-64.160930	-171.112500	 3.945913	-56.556110	 3.642281	 23.176000	 78.073420	-25.863370	-2.385833	 28.452750	 0.000004	 11.885880	-66.161510	-166.666700	-12.305550	-60.417420	-6.233911	 12.253490	 79.412710	 3.670005	 2.384659	 28.388700	-0.000001	 1.412331	 12.952660	-0.664618	 0.480424	 21.664300	-2.184487	-8.292589	-7.219896	 2.832527	-93.051220	 76.905830	 161.004000	 11.788170	 12.509590	-60.109880	-21.700650	 2.255591	-7.385414	-34.173390	-22.934290	-26.578500	-2.027600	 6.559038	 9.033609	-5.188889	 0.308190	 3.541030	-5.234859	 0.342567	 0.430617	-1.632750	-12.242360	-2.565552	-7.471267	 1.634673	-2.097560	 94.475110	 68.524570	-163.898600	-15.739190	 11.992310	 51.512020	 3.852241	 12.130860	 46.217920	 13.674020	-20.721790	 20.348000	 1.803333	 3.979147	-15.098590	 4.898592	 3.004813	-9.310344	 5.224449	 0.395017	 2.014677
-0.017771	 0.241871	 1.124951	 2.709398	 24.404480	-4.652862	 10.901940	-62.242950	-172.132400	 3.885890	-54.709050	 3.533660	 21.829140	 77.505480	-24.512200	-2.385833	 28.452750	 0.000004	 9.790547	-64.185460	-168.442600	-11.418370	-58.560100	-5.357093	 11.891600	 78.917650	 3.731915	 2.384659	 28.388700	-0.000001	 2.233467	 12.437480	-0.771765	 0.619877	 21.431150	-2.338546	-8.370748	-7.764944	 2.534692	-93.246100	 76.545720	 161.808100	 12.617460	 13.374680	-60.454990	-21.263000	 2.229378	-7.349648	-33.758320	-23.293740	-27.210230	-2.027600	 6.559038	 9.033609	-5.188889	 0.308190	 3.541030	-5.234859	 0.342567	 0.430617	-1.667165	-13.447550	-2.091640	-7.561087	 2.903368	-2.201327	 94.194560	 68.978320	-164.328300	-16.518690	 13.095020	 50.747830	 3.250781	 12.251350	 47.977380	 13.363440	-21.168910	 20.414190	 1.803333	 3.979147	-15.098590	 4.898592	 3.004813	-9.310344	 5.224449	 0.395017	 2.014677
-0.016074	 0.237733	 1.136253	 2.886690	 23.660510	-4.377234	 10.060180	-60.112310	-172.900500	 3.910123	-52.601940	 3.404186	 20.437190	 76.854970	-23.097630	-2.385833	 28.452750	 0.000004	 7.837500	-61.995460	-170.028200	-10.525270	-56.451090	-4.486952	 11.535760	 78.326680	 3.752239	 2.384659	 28.388700	-0.000001	 3.145690	 11.791600	-0.883256	 0.763172	 21.093660	-2.461844	-8.445972	-8.326239	 2.171521	-93.676800	 75.740090	 162.728100	 13.456190	 14.012900	-60.588730	-20.775090	 2.199235	-7.307976	-33.210000	-23.676520	-27.890740	-2.027600	 6.559038	 9.033609	-5.188889	 0.308190	 3.541030	-5.234859	 0.342567	 0.430617	-1.668793	-14.196390	-1.418723	-7.640676	 3.773156	-2.476198	 93.939930	 69.353750	-164.784700	-17.313480	 14.237980	 49.725630	 2.586049	 12.348830	 49.921090	 13.003050	-21.664590	 20.463150	 1.803333	 3.979147	-15.098590	 4.898592	 3.004813	-9.310344	 5.224449	 0.395017	 2.014677
